<?xml version="1.0" encoding="iso-8859-1"?>
<!-- Generator: Adobe Illustrator 16.0.0, SVG Export Plug-In . SVG Version: 6.00 Build 0)  -->
<!DOCTYPE svg PUBLIC "-//W3C//DTD SVG 1.1//EN" "http://www.w3.org/Graphics/SVG/1.1/DTD/svg11.dtd">
<svg version="1.1" id="Layer_1" xmlns="http://www.w3.org/2000/svg" xmlns:xlink="http://www.w3.org/1999/xlink" x="0px" y="0px"
	 width="544px" height="88.167px" viewBox="0 0 544 88.167" enable-background="new 0 0 544 88.167" xml:space="preserve">
<path fill="#E14658" d="M63,14.25v7.924c8,3.849,12.742,10.859,14.172,19.171c2.053,0.089,3.853,0.238,5.847,0.458
	C81.909,29.431,75,19.012,63,14.25z"/>
<g>
	<path fill="#22252C" d="M83.349,43.647c-1.675-0.088-3.371-0.127-5.082-0.124c0.038,0.599,0.344,1.202,0.344,1.811
		C78.611,59.718,68,71.556,54,73.044v4.952c16-1.709,29.658-15.911,29.658-33.177C83.658,44.425,83.362,44.037,83.349,43.647z"/>
	<path fill="#E14658" d="M47,72.983c-8-1.028-15.175-5.543-19.563-11.996c-1.416,1.283-2.712,2.617-3.909,3.998
		C29.03,72.221,38,77.142,47,78.025V72.983z"/>
</g>
<path fill="#22252C" d="M47,19.234v-7.625c-16,1.512-30.109,15.799-30.109,33.21c0,5.866,1.646,11.375,4.305,16.164
	c1.466-1.625,3.165-3.173,4.947-4.639c-1.34-3.201-2.304-6.713-2.304-10.4C23.839,32.269,34,20.981,47,19.234z"/>
<g>
	<path fill="#E14658" d="M41,28.149v18.533c1-1.184,3-2.257,6-3.212V22.667h-0.34L41,28.149z"/>
</g>
<path fill="#22252C" d="M54,65.751c1-0.833,4-1.528,6-2.091V13.242c-2-1.124-4-1.909-6-2.302V65.751z"/>
<g>
	<path fill="#E14658" d="M54,47.046c-13,3.701-23.432,10.066-30.249,17.939c0.404,0.532,0.685,1.05,1.12,1.555
		c0.021,0.025-0.027,0.049-0.007,0.073c0.422,0.486,0.821,0.961,1.269,1.422c0.022,0.022,0.028,0.046,0.05,0.069
		c0.454,0.466,0.913,0.918,1.394,1.355c0.013,0.013,0.021,0.024,0.035,0.037c0.495,0.45,1.295,0.885,1.817,1.305
		C32.434,66.909,36,63.274,41,60.025v16.39c1,0.8,3.679,1.252,5.921,1.252c0.001,0,0.079,0,0.079,0V55.825c2-1.181,4-2.286,7-3.306
		V47.046z"/>
	<path fill="#22252C" d="M83.157,43.647c-3.051-0.161-6.047-0.175-9.213-0.02C69.084,43.866,65,44.479,60,45.417v4.499
		c5-1.732,9.954-3.082,15.457-3.964C78.064,45.534,81,45.232,83,45.042c0-0.075,0-0.148,0-0.223
		C83,44.425,83.17,44.037,83.157,43.647z"/>
</g>
<g>
	<path fill="#22252C" d="M108.853,55.943c3.472-0.155,5.208-2.047,5.208-5.674V24.335h7.798l-0.026,28.524
		c0,3.092-0.949,5.588-2.851,7.487c-1.899,1.9-4.386,2.85-7.46,2.85h-5.233v-7.254H108.853z"/>
	<path fill="#22252C" d="M133.801,57.614c-3.714-3.722-5.57-8.337-5.57-13.848c0-5.526,1.856-10.147,5.57-13.86
		c3.713-3.713,8.333-5.57,13.861-5.57c5.526,0,10.146,1.857,13.86,5.57c3.713,3.713,5.57,8.334,5.57,13.86
		c0,5.527-1.857,10.147-5.57,13.861c-3.714,3.713-8.334,5.57-13.86,5.57C142.134,63.197,137.514,61.336,133.801,57.614z
		 M147.688,55.943c3.437,0,6.234-1.166,8.395-3.498c2.158-2.332,3.238-5.225,3.238-8.679c0-3.454-1.08-6.347-3.238-8.679
		c-2.16-2.332-4.975-3.498-8.446-3.498c-3.438,0-6.235,1.166-8.395,3.498c-2.159,2.332-3.238,5.225-3.238,8.679
		c0,3.455,1.079,6.348,3.238,8.679S144.216,55.943,147.688,55.943z"/>
	<path fill="#22252C" d="M170.823,63.197l15.545-38.862h7.771l15.52,38.835l-8.265,0.026l-2.332-5.959h-17.617l-2.332,5.959H170.823
		z M190.461,34.699l-5.906,14.767h11.658L190.461,34.699z"/>
	<path fill="#22252C" d="M215.462,63.197V24.335h2.591l24.354,24.354V24.335h7.772v38.862h-2.85l-24.095-24.094v24.094H215.462z"/>
	<path fill="#22252C" d="M258.235,63.197V24.335h2.591l24.354,24.354V24.335h7.772v38.862h-2.85l-24.095-24.094v24.094H258.235z"/>
	<path fill="#22252C" d="M298.963,63.197l15.545-38.862h7.771l15.52,38.835l-8.265,0.026l-2.332-5.959h-17.617l-2.332,5.959H298.963
		z M318.601,34.699l-5.907,14.767h11.659L318.601,34.699z"/>
	<path fill="#22252C" d="M389.329,42.704c3.402,2.28,5.207,5.242,5.414,8.886c-0.346,7.324-4.258,11.201-11.736,11.633
		l-21.865-0.026V24.361h20.622c6.545,0.38,10,4.189,10.363,11.425C392.006,39.241,391.073,41.547,389.329,42.704z M368.939,39.932
		h10.881c3.126-0.052,4.732-1.667,4.819-4.845c-0.087-1.9-1.668-2.902-4.741-3.005h-10.959V39.932z M368.939,57.135h12.694
		c3.644-0.052,5.51-1.926,5.597-5.622c-0.087-2.487-1.927-3.783-5.519-3.886h-12.772V57.135z"/>
	<path fill="#22252C" d="M400.443,63.197l15.545-38.862h7.771l15.52,38.835l-8.265,0.026l-2.332-5.959h-17.617l-2.332,5.959H400.443
		z M420.081,34.699l-5.907,14.767h11.659L420.081,34.699z"/>
	<path fill="#22252C" d="M445.082,24.31h7.746v38.888h-7.746V24.31z"/>
	<path fill="#22252C" d="M468.477,24.335v31.607h20.727v7.254h-28.499V24.335H468.477z"/>
	<path fill="#22252C" d="M495.499,63.197V24.361l28.55-0.026v7.254h-20.778v8.29h15.571v7.229h-15.571v8.834h20.727v7.254H495.499z"
		/>
</g>
</svg>
